<svg xmlns="http://www.w3.org/2000/svg" width="932" height="568" viewBox="0 0 932 568">
  <title>Paseo Deck active timeline</title>
  <rect width="932" height="568" rx="12" fill="#1c1917"/>
  <rect width="932" height="32" rx="12" fill="#292524"/>
  <rect y="20" width="932" height="12" fill="#292524"/>
  <circle cx="18" cy="16" r="5" fill="#ef4444"/>
  <circle cx="36" cy="16" r="5" fill="#f59e0b"/>
  <circle cx="54" cy="16" r="5" fill="#22c55e"/>
  <g fill="#f5f5f4" font-family="SFMono-Regular, Menlo, Consolas, monospace" font-size="14" xml:space="preserve">
<text x="16" y="62"> Tree  Projects / workspaces        [TIMELINE] Selected agent timeline · Atlas [agent-at]           </text>
<text x="16" y="80"> ▾ Deck Labs · 3 agents · !1        &gt; You                                                           </text>
<text x="16" y="98">   ▾ Main · 2 agents · !1             Check the release build.                                      </text>
<text x="16" y="116">     • Harbor [agent-ha] ✓ ! idle   Reasoning                                                       </text>
<text x="16" y="134">      codex/gpt-5.6-terra             I will run the focused checks, then verify the packaged       </text>
<text x="16" y="152">&gt;    • Atlas [agent-at] running       executable aliases.                                           </text>
<text x="16" y="170">      codex/gpt-5.6-terra           Tool completed: npm run check                                   </text>
<text x="16" y="188">   ▾ Theme polish · 1 agent           71 tests passed; typecheck and build succeeded.               </text>
<text x="16" y="206">     • Lumen [agent-lu] idle        Assistant                                                       </text>
<text x="16" y="224">      pi/claude-sonnet                The release build is clean. Both executable aliases are       </text>
<text x="16" y="242">                                      ready.                                                        </text>
<text x="16" y="260">                                    ── Turn completed ──                                            </text>
<text x="16" y="278"></text>
<text x="16" y="296"></text>
<text x="16" y="314"></text>
<text x="16" y="332"></text>
<text x="16" y="350"></text>
<text x="16" y="368"></text>
<text x="16" y="386"></text>
<text x="16" y="404"></text>
<text x="16" y="422"></text>
<text x="16" y="440"></text>
<text x="16" y="458"></text>
<text x="16" y="476"> Composer   Prompt → Atlas</text>
<text x="16" y="494">────────────────────────────────────────────────────────────────────────────────────────────────────</text>
<text x="16" y="512">                                                                                                    </text>
<text x="16" y="530">────────────────────────────────────────────────────────────────────────────────────────────────────</text>
<text x="16" y="548">Timeline: ↑↓ g/G [] turns {} errors Ctrl-F search · y copy · Enter Tab · connected · codex/gpt-5.6-…</text>
  </g>
</svg>